<mxfile host="Electron" agent="Mozilla/5.0 (Macintosh; Intel Mac OS X 10_15_7) AppleWebKit/537.36 (KHTML, like Gecko) draw.io/26.2.2 Chrome/134.0.6998.178 Electron/35.1.2 Safari/537.36" version="26.2.2">
  <diagram id="R2lEEEUBdFMjLlhIrx00" name="Page-1">
    <mxGraphModel dx="550" dy="785" grid="1" gridSize="10" guides="1" tooltips="1" connect="1" arrows="1" fold="1" page="1" pageScale="1" pageWidth="850" pageHeight="1100" math="0" shadow="0" extFonts="Permanent Marker^https://fonts.googleapis.com/css?family=Permanent+Marker">
      <root>
        <mxCell id="0" />
        <mxCell id="1" parent="0" />
        <mxCell id="WPwQvEkBInAAZGacX5Yd-13" style="edgeStyle=none;shape=connector;rounded=0;orthogonalLoop=1;jettySize=auto;html=1;entryX=0.5;entryY=0;entryDx=0;entryDy=0;strokeColor=default;align=center;verticalAlign=middle;fontFamily=Helvetica;fontSize=11;fontColor=default;labelBackgroundColor=default;startFill=0;endArrow=none;" edge="1" parent="1" source="WPwQvEkBInAAZGacX5Yd-1" target="WPwQvEkBInAAZGacX5Yd-12">
          <mxGeometry relative="1" as="geometry" />
        </mxCell>
        <mxCell id="WPwQvEkBInAAZGacX5Yd-15" value="1..*" style="edgeLabel;html=1;align=center;verticalAlign=middle;resizable=0;points=[];fontFamily=Helvetica;fontSize=11;fontColor=default;labelBackgroundColor=default;" vertex="1" connectable="0" parent="WPwQvEkBInAAZGacX5Yd-13">
          <mxGeometry x="-0.2" y="4" relative="1" as="geometry">
            <mxPoint as="offset" />
          </mxGeometry>
        </mxCell>
        <mxCell id="WPwQvEkBInAAZGacX5Yd-47" style="edgeStyle=none;shape=connector;rounded=0;orthogonalLoop=1;jettySize=auto;html=1;entryX=1;entryY=0.5;entryDx=0;entryDy=0;strokeColor=default;align=center;verticalAlign=middle;fontFamily=Helvetica;fontSize=11;fontColor=default;labelBackgroundColor=default;startFill=0;endArrow=none;" edge="1" parent="1" source="WPwQvEkBInAAZGacX5Yd-1" target="WPwQvEkBInAAZGacX5Yd-46">
          <mxGeometry relative="1" as="geometry" />
        </mxCell>
        <mxCell id="WPwQvEkBInAAZGacX5Yd-49" value="0..n" style="edgeLabel;html=1;align=center;verticalAlign=middle;resizable=0;points=[];fontFamily=Helvetica;fontSize=11;fontColor=default;labelBackgroundColor=default;" vertex="1" connectable="0" parent="WPwQvEkBInAAZGacX5Yd-47">
          <mxGeometry x="-0.1744" relative="1" as="geometry">
            <mxPoint as="offset" />
          </mxGeometry>
        </mxCell>
        <mxCell id="WPwQvEkBInAAZGacX5Yd-1" value="Power company" style="rounded=1;arcSize=10;whiteSpace=wrap;html=1;align=center;" vertex="1" parent="1">
          <mxGeometry x="560" y="120" width="100" height="40" as="geometry" />
        </mxCell>
        <mxCell id="WPwQvEkBInAAZGacX5Yd-25" style="edgeStyle=none;shape=connector;rounded=0;orthogonalLoop=1;jettySize=auto;html=1;entryX=0.5;entryY=0;entryDx=0;entryDy=0;strokeColor=default;align=center;verticalAlign=middle;fontFamily=Helvetica;fontSize=11;fontColor=default;labelBackgroundColor=default;startFill=0;endArrow=none;" edge="1" parent="1" source="WPwQvEkBInAAZGacX5Yd-2" target="WPwQvEkBInAAZGacX5Yd-24">
          <mxGeometry relative="1" as="geometry" />
        </mxCell>
        <mxCell id="WPwQvEkBInAAZGacX5Yd-53" value="1..1" style="edgeLabel;html=1;align=center;verticalAlign=middle;resizable=0;points=[];fontFamily=Helvetica;fontSize=11;fontColor=default;labelBackgroundColor=default;" vertex="1" connectable="0" parent="WPwQvEkBInAAZGacX5Yd-25">
          <mxGeometry x="0.04" y="2" relative="1" as="geometry">
            <mxPoint as="offset" />
          </mxGeometry>
        </mxCell>
        <mxCell id="WPwQvEkBInAAZGacX5Yd-33" style="edgeStyle=none;shape=connector;rounded=0;orthogonalLoop=1;jettySize=auto;html=1;entryX=1;entryY=0.5;entryDx=0;entryDy=0;strokeColor=default;align=center;verticalAlign=middle;fontFamily=Helvetica;fontSize=11;fontColor=default;labelBackgroundColor=default;startFill=0;endArrow=none;" edge="1" parent="1" source="WPwQvEkBInAAZGacX5Yd-2" target="WPwQvEkBInAAZGacX5Yd-32">
          <mxGeometry relative="1" as="geometry" />
        </mxCell>
        <mxCell id="WPwQvEkBInAAZGacX5Yd-51" value="0..n" style="edgeLabel;html=1;align=center;verticalAlign=middle;resizable=0;points=[];fontFamily=Helvetica;fontSize=11;fontColor=default;labelBackgroundColor=default;" vertex="1" connectable="0" parent="WPwQvEkBInAAZGacX5Yd-33">
          <mxGeometry x="0.1667" relative="1" as="geometry">
            <mxPoint as="offset" />
          </mxGeometry>
        </mxCell>
        <mxCell id="WPwQvEkBInAAZGacX5Yd-2" value="Wind farm" style="rounded=1;arcSize=10;whiteSpace=wrap;html=1;align=center;" vertex="1" parent="1">
          <mxGeometry x="560" y="340" width="100" height="40" as="geometry" />
        </mxCell>
        <mxCell id="WPwQvEkBInAAZGacX5Yd-14" style="edgeStyle=none;shape=connector;rounded=0;orthogonalLoop=1;jettySize=auto;html=1;entryX=0.5;entryY=0;entryDx=0;entryDy=0;strokeColor=default;align=center;verticalAlign=middle;fontFamily=Helvetica;fontSize=11;fontColor=default;labelBackgroundColor=default;startFill=0;endArrow=none;" edge="1" parent="1" source="WPwQvEkBInAAZGacX5Yd-12" target="WPwQvEkBInAAZGacX5Yd-2">
          <mxGeometry relative="1" as="geometry" />
        </mxCell>
        <mxCell id="WPwQvEkBInAAZGacX5Yd-16" value="0..*" style="edgeLabel;html=1;align=center;verticalAlign=middle;resizable=0;points=[];fontFamily=Helvetica;fontSize=11;fontColor=default;labelBackgroundColor=default;" vertex="1" connectable="0" parent="WPwQvEkBInAAZGacX5Yd-14">
          <mxGeometry x="0.1333" relative="1" as="geometry">
            <mxPoint as="offset" />
          </mxGeometry>
        </mxCell>
        <mxCell id="WPwQvEkBInAAZGacX5Yd-12" value="Operation" style="shape=associativeEntity;whiteSpace=wrap;html=1;align=center;fontFamily=Helvetica;fontSize=11;fontColor=default;labelBackgroundColor=default;" vertex="1" parent="1">
          <mxGeometry x="540" y="220" width="140" height="60" as="geometry" />
        </mxCell>
        <mxCell id="WPwQvEkBInAAZGacX5Yd-18" style="edgeStyle=none;shape=connector;rounded=0;orthogonalLoop=1;jettySize=auto;html=1;strokeColor=default;align=center;verticalAlign=middle;fontFamily=Helvetica;fontSize=11;fontColor=default;labelBackgroundColor=default;startFill=0;endArrow=none;" edge="1" parent="1" source="WPwQvEkBInAAZGacX5Yd-17" target="WPwQvEkBInAAZGacX5Yd-2">
          <mxGeometry relative="1" as="geometry" />
        </mxCell>
        <mxCell id="WPwQvEkBInAAZGacX5Yd-17" value="&lt;u&gt;name&lt;/u&gt;" style="ellipse;whiteSpace=wrap;html=1;align=center;fontFamily=Helvetica;fontSize=11;fontColor=default;labelBackgroundColor=default;" vertex="1" parent="1">
          <mxGeometry x="790" y="340" width="100" height="40" as="geometry" />
        </mxCell>
        <mxCell id="WPwQvEkBInAAZGacX5Yd-22" style="edgeStyle=none;shape=connector;rounded=0;orthogonalLoop=1;jettySize=auto;html=1;entryX=0.75;entryY=1;entryDx=0;entryDy=0;strokeColor=default;align=center;verticalAlign=middle;fontFamily=Helvetica;fontSize=11;fontColor=default;labelBackgroundColor=default;startFill=0;endArrow=none;" edge="1" parent="1" source="WPwQvEkBInAAZGacX5Yd-21" target="WPwQvEkBInAAZGacX5Yd-2">
          <mxGeometry relative="1" as="geometry" />
        </mxCell>
        <mxCell id="WPwQvEkBInAAZGacX5Yd-21" value="on_land" style="ellipse;whiteSpace=wrap;html=1;align=center;fontFamily=Helvetica;fontSize=11;fontColor=default;labelBackgroundColor=default;" vertex="1" parent="1">
          <mxGeometry x="760" y="490" width="100" height="40" as="geometry" />
        </mxCell>
        <mxCell id="WPwQvEkBInAAZGacX5Yd-23" value="Wind turbine" style="rounded=1;arcSize=10;whiteSpace=wrap;html=1;align=center;fontFamily=Helvetica;fontSize=11;fontColor=default;labelBackgroundColor=default;" vertex="1" parent="1">
          <mxGeometry x="560" y="550" width="100" height="40" as="geometry" />
        </mxCell>
        <mxCell id="WPwQvEkBInAAZGacX5Yd-26" style="edgeStyle=none;shape=connector;rounded=0;orthogonalLoop=1;jettySize=auto;html=1;entryX=0.5;entryY=0;entryDx=0;entryDy=0;strokeColor=default;align=center;verticalAlign=middle;fontFamily=Helvetica;fontSize=11;fontColor=default;labelBackgroundColor=default;startFill=0;endArrow=none;" edge="1" parent="1" source="WPwQvEkBInAAZGacX5Yd-24" target="WPwQvEkBInAAZGacX5Yd-23">
          <mxGeometry relative="1" as="geometry" />
        </mxCell>
        <mxCell id="WPwQvEkBInAAZGacX5Yd-54" value="0..*" style="edgeLabel;html=1;align=center;verticalAlign=middle;resizable=0;points=[];fontFamily=Helvetica;fontSize=11;fontColor=default;labelBackgroundColor=default;" vertex="1" connectable="0" parent="WPwQvEkBInAAZGacX5Yd-26">
          <mxGeometry x="0.0333" y="1" relative="1" as="geometry">
            <mxPoint as="offset" />
          </mxGeometry>
        </mxCell>
        <mxCell id="WPwQvEkBInAAZGacX5Yd-24" value="has" style="shape=rhombus;perimeter=rhombusPerimeter;whiteSpace=wrap;html=1;align=center;fontFamily=Helvetica;fontSize=11;fontColor=default;labelBackgroundColor=default;" vertex="1" parent="1">
          <mxGeometry x="550" y="430" width="120" height="60" as="geometry" />
        </mxCell>
        <mxCell id="WPwQvEkBInAAZGacX5Yd-28" style="edgeStyle=none;shape=connector;rounded=0;orthogonalLoop=1;jettySize=auto;html=1;entryX=1;entryY=0.75;entryDx=0;entryDy=0;strokeColor=default;align=center;verticalAlign=middle;fontFamily=Helvetica;fontSize=11;fontColor=default;labelBackgroundColor=default;startFill=0;endArrow=none;" edge="1" parent="1" source="WPwQvEkBInAAZGacX5Yd-27" target="WPwQvEkBInAAZGacX5Yd-23">
          <mxGeometry relative="1" as="geometry" />
        </mxCell>
        <mxCell id="WPwQvEkBInAAZGacX5Yd-27" value="&lt;u&gt;ID&lt;/u&gt;" style="ellipse;whiteSpace=wrap;html=1;align=center;fontFamily=Helvetica;fontSize=11;fontColor=default;labelBackgroundColor=default;" vertex="1" parent="1">
          <mxGeometry x="700" y="650" width="100" height="40" as="geometry" />
        </mxCell>
        <mxCell id="WPwQvEkBInAAZGacX5Yd-30" style="edgeStyle=none;shape=connector;rounded=0;orthogonalLoop=1;jettySize=auto;html=1;strokeColor=default;align=center;verticalAlign=middle;fontFamily=Helvetica;fontSize=11;fontColor=default;labelBackgroundColor=default;startFill=0;endArrow=none;" edge="1" parent="1" source="WPwQvEkBInAAZGacX5Yd-29" target="WPwQvEkBInAAZGacX5Yd-23">
          <mxGeometry relative="1" as="geometry" />
        </mxCell>
        <mxCell id="WPwQvEkBInAAZGacX5Yd-29" value="power_output" style="ellipse;whiteSpace=wrap;html=1;align=center;fontFamily=Helvetica;fontSize=11;fontColor=default;labelBackgroundColor=default;" vertex="1" parent="1">
          <mxGeometry x="440" y="690" width="100" height="40" as="geometry" />
        </mxCell>
        <mxCell id="WPwQvEkBInAAZGacX5Yd-31" value="Country" style="rounded=1;arcSize=10;whiteSpace=wrap;html=1;align=center;fontFamily=Helvetica;fontSize=11;fontColor=default;labelBackgroundColor=default;" vertex="1" parent="1">
          <mxGeometry x="190" y="340" width="100" height="40" as="geometry" />
        </mxCell>
        <mxCell id="WPwQvEkBInAAZGacX5Yd-34" style="edgeStyle=none;shape=connector;rounded=0;orthogonalLoop=1;jettySize=auto;html=1;entryX=1;entryY=0.5;entryDx=0;entryDy=0;strokeColor=default;align=center;verticalAlign=middle;fontFamily=Helvetica;fontSize=11;fontColor=default;labelBackgroundColor=default;startFill=0;endArrow=none;" edge="1" parent="1" source="WPwQvEkBInAAZGacX5Yd-32" target="WPwQvEkBInAAZGacX5Yd-31">
          <mxGeometry relative="1" as="geometry" />
        </mxCell>
        <mxCell id="WPwQvEkBInAAZGacX5Yd-52" value="1.1" style="edgeLabel;html=1;align=center;verticalAlign=middle;resizable=0;points=[];fontFamily=Helvetica;fontSize=11;fontColor=default;labelBackgroundColor=default;" vertex="1" connectable="0" parent="WPwQvEkBInAAZGacX5Yd-34">
          <mxGeometry x="0.0444" y="-3" relative="1" as="geometry">
            <mxPoint as="offset" />
          </mxGeometry>
        </mxCell>
        <mxCell id="WPwQvEkBInAAZGacX5Yd-32" value="is in" style="shape=rhombus;perimeter=rhombusPerimeter;whiteSpace=wrap;html=1;align=center;fontFamily=Helvetica;fontSize=11;fontColor=default;labelBackgroundColor=default;" vertex="1" parent="1">
          <mxGeometry x="380" y="330" width="120" height="60" as="geometry" />
        </mxCell>
        <mxCell id="WPwQvEkBInAAZGacX5Yd-37" style="edgeStyle=none;shape=connector;rounded=0;orthogonalLoop=1;jettySize=auto;html=1;strokeColor=default;align=center;verticalAlign=middle;fontFamily=Helvetica;fontSize=11;fontColor=default;labelBackgroundColor=default;startFill=0;endArrow=none;" edge="1" parent="1" source="WPwQvEkBInAAZGacX5Yd-36" target="WPwQvEkBInAAZGacX5Yd-31">
          <mxGeometry relative="1" as="geometry" />
        </mxCell>
        <mxCell id="WPwQvEkBInAAZGacX5Yd-36" value="name" style="ellipse;whiteSpace=wrap;html=1;align=center;fontStyle=4;fontFamily=Helvetica;fontSize=11;fontColor=default;labelBackgroundColor=default;" vertex="1" parent="1">
          <mxGeometry x="30" y="200" width="100" height="40" as="geometry" />
        </mxCell>
        <mxCell id="WPwQvEkBInAAZGacX5Yd-39" style="edgeStyle=none;shape=connector;rounded=0;orthogonalLoop=1;jettySize=auto;html=1;entryX=0.25;entryY=1;entryDx=0;entryDy=0;strokeColor=default;align=center;verticalAlign=middle;fontFamily=Helvetica;fontSize=11;fontColor=default;labelBackgroundColor=default;startFill=0;endArrow=none;" edge="1" parent="1" source="WPwQvEkBInAAZGacX5Yd-38" target="WPwQvEkBInAAZGacX5Yd-31">
          <mxGeometry relative="1" as="geometry" />
        </mxCell>
        <mxCell id="WPwQvEkBInAAZGacX5Yd-38" value="capital_city" style="ellipse;whiteSpace=wrap;html=1;align=center;fontFamily=Helvetica;fontSize=11;fontColor=default;labelBackgroundColor=default;" vertex="1" parent="1">
          <mxGeometry x="140" y="450" width="100" height="40" as="geometry" />
        </mxCell>
        <mxCell id="WPwQvEkBInAAZGacX5Yd-41" style="edgeStyle=none;shape=connector;rounded=0;orthogonalLoop=1;jettySize=auto;html=1;entryX=0.75;entryY=1;entryDx=0;entryDy=0;strokeColor=default;align=center;verticalAlign=middle;fontFamily=Helvetica;fontSize=11;fontColor=default;labelBackgroundColor=default;startFill=0;endArrow=none;" edge="1" parent="1" source="WPwQvEkBInAAZGacX5Yd-40" target="WPwQvEkBInAAZGacX5Yd-31">
          <mxGeometry relative="1" as="geometry" />
        </mxCell>
        <mxCell id="WPwQvEkBInAAZGacX5Yd-40" value="continent" style="ellipse;whiteSpace=wrap;html=1;align=center;fontFamily=Helvetica;fontSize=11;fontColor=default;labelBackgroundColor=default;" vertex="1" parent="1">
          <mxGeometry x="280" y="430" width="100" height="40" as="geometry" />
        </mxCell>
        <mxCell id="WPwQvEkBInAAZGacX5Yd-43" style="edgeStyle=none;shape=connector;rounded=0;orthogonalLoop=1;jettySize=auto;html=1;entryX=0.75;entryY=0;entryDx=0;entryDy=0;strokeColor=default;align=center;verticalAlign=middle;fontFamily=Helvetica;fontSize=11;fontColor=default;labelBackgroundColor=default;startFill=0;endArrow=none;" edge="1" parent="1" source="WPwQvEkBInAAZGacX5Yd-42" target="WPwQvEkBInAAZGacX5Yd-31">
          <mxGeometry relative="1" as="geometry" />
        </mxCell>
        <mxCell id="WPwQvEkBInAAZGacX5Yd-42" value="&lt;span style=&quot;border-bottom: 1px dotted&quot;&gt;population_count&lt;/span&gt;" style="ellipse;whiteSpace=wrap;html=1;align=center;fontFamily=Helvetica;fontSize=11;fontColor=default;labelBackgroundColor=default;" vertex="1" parent="1">
          <mxGeometry x="190" y="190" width="100" height="40" as="geometry" />
        </mxCell>
        <mxCell id="WPwQvEkBInAAZGacX5Yd-45" style="edgeStyle=none;shape=connector;rounded=0;orthogonalLoop=1;jettySize=auto;html=1;entryX=1;entryY=0;entryDx=0;entryDy=0;strokeColor=default;align=center;verticalAlign=middle;fontFamily=Helvetica;fontSize=11;fontColor=default;labelBackgroundColor=default;startFill=0;endArrow=none;" edge="1" parent="1" source="WPwQvEkBInAAZGacX5Yd-44" target="WPwQvEkBInAAZGacX5Yd-1">
          <mxGeometry relative="1" as="geometry" />
        </mxCell>
        <mxCell id="WPwQvEkBInAAZGacX5Yd-44" value="name" style="ellipse;whiteSpace=wrap;html=1;align=center;fontStyle=4;fontFamily=Helvetica;fontSize=11;fontColor=default;labelBackgroundColor=default;" vertex="1" parent="1">
          <mxGeometry x="640" y="30" width="100" height="40" as="geometry" />
        </mxCell>
        <mxCell id="WPwQvEkBInAAZGacX5Yd-48" style="edgeStyle=none;shape=connector;rounded=0;orthogonalLoop=1;jettySize=auto;html=1;entryX=1;entryY=0;entryDx=0;entryDy=0;strokeColor=default;align=center;verticalAlign=middle;fontFamily=Helvetica;fontSize=11;fontColor=default;labelBackgroundColor=default;startFill=0;endArrow=none;" edge="1" parent="1" source="WPwQvEkBInAAZGacX5Yd-46" target="WPwQvEkBInAAZGacX5Yd-31">
          <mxGeometry relative="1" as="geometry" />
        </mxCell>
        <mxCell id="WPwQvEkBInAAZGacX5Yd-50" value="1..1" style="edgeLabel;html=1;align=center;verticalAlign=middle;resizable=0;points=[];fontFamily=Helvetica;fontSize=11;fontColor=default;labelBackgroundColor=default;" vertex="1" connectable="0" parent="WPwQvEkBInAAZGacX5Yd-48">
          <mxGeometry x="0.1222" y="3" relative="1" as="geometry">
            <mxPoint as="offset" />
          </mxGeometry>
        </mxCell>
        <mxCell id="WPwQvEkBInAAZGacX5Yd-46" value="headquarter in" style="shape=rhombus;perimeter=rhombusPerimeter;whiteSpace=wrap;html=1;align=center;fontFamily=Helvetica;fontSize=11;fontColor=default;labelBackgroundColor=default;" vertex="1" parent="1">
          <mxGeometry x="360" y="160" width="120" height="60" as="geometry" />
        </mxCell>
      </root>
    </mxGraphModel>
  </diagram>
</mxfile>
